<svg xmlns="http://www.w3.org/2000/svg" viewBox="0 0 64 64" role="img" aria-labelledby="title desc">
  <title id="title">Hanif's Dental favicon</title>
  <desc id="desc">A stylized tooth with a sparkle on a blue gradient background.</desc>
  <defs>
    <linearGradient id="bg" x1="0" y1="0" x2="1" y2="1">
      <stop offset="0%" stop-color="#0f3c5c" />
      <stop offset="100%" stop-color="#1c7da6" />
    </linearGradient>
    <linearGradient id="tooth" x1="0" y1="0" x2="0" y2="1">
      <stop offset="0%" stop-color="#ffffff" />
      <stop offset="100%" stop-color="#dff7ff" />
    </linearGradient>
  </defs>
  <rect width="64" height="64" rx="16" fill="url(#bg)" />
  <path
    d="M32 10c-5.5 0-9.2 2.7-13 2.7-3.2 0-5.5-1.4-7.5.9-2.1 2.5-1.6 6.9-.3 11.9 1.8 7.1 4.8 19.8 9.3 19.8 3.1 0 3.3-6 6.8-6 3.4 0 3.7 6 6.7 6 4.6 0 7.5-12.7 9.3-19.8 1.3-5 1.8-9.4-.3-11.9-2-2.3-4.2-.9-7.5-.9C41.2 12.7 37.5 10 32 10Z"
    fill="url(#tooth)"
  />
  <path
    d="M32 10c-5.5 0-9.2 2.7-13 2.7-3.2 0-5.5-1.4-7.5.9-2.1 2.5-1.6 6.9-.3 11.9 1.8 7.1 4.8 19.8 9.3 19.8 3.1 0 3.3-6 6.8-6 3.4 0 3.7 6 6.7 6 4.6 0 7.5-12.7 9.3-19.8 1.3-5 1.8-9.4-.3-11.9-2-2.3-4.2-.9-7.5-.9C41.2 12.7 37.5 10 32 10Z"
    fill="none"
    stroke="#d2eefb"
    stroke-width="2"
    stroke-linejoin="round"
  />
  <path
    d="M46 16l1.6 4.4L52 22l-4.4 1.6L46 28l-1.6-4.4L40 22l4.4-1.6L46 16Z"
    fill="#ffd76a"
  />
</svg>
